<svg xmlns="http://www.w3.org/2000/svg" width="76.176" height="44.441" viewBox="0 0 76.176 44.441">
  <g id="fast" transform="translate(-0.111 363)">
    <path id="Path_18508" data-name="Path 18508" d="M85.788-362.851a3.1,3.1,0,0,0-.937.625c-.461.446-.61.8-.862,2.007l-.089.476,4.431.045,4.431.045.848.416a6.607,6.607,0,0,1,2.81,3.033,5.408,5.408,0,0,1,.327,1.978,4.871,4.871,0,0,1-1.591,3.821l-.922.937.922.937a4.871,4.871,0,0,1,1.591,3.822,4.886,4.886,0,0,1-1.606,3.836l-.922.937.773.743a6.915,6.915,0,0,1,1.026,1.2l.268.491h1.948a9.652,9.652,0,0,1,4.952,1.041,11.354,11.354,0,0,1,5.19,5.2,9.337,9.337,0,0,1,1.026,4.639l.015,1.68h1.9c2.141,0,2.706-.164,3.242-.922.238-.327,1.19-4.505,3.94-17.338,1.993-9.294,3.628-17.174,3.628-17.516a2.233,2.233,0,0,0-1.338-1.963l-.654-.327-16.966.015C93.848-362.985,86.026-362.911,85.788-362.851Z" transform="translate(-71.33)" fill="#f43397"/>
    <path id="Path_18509" data-name="Path 18509" d="M44.43-319.6a2.717,2.717,0,0,0-.714.476,2.349,2.349,0,0,0,.312,3.732c.416.312.565.312,6.8.312s6.379,0,6.8-.312a2.363,2.363,0,0,0,0-3.985c-.416-.3-.595-.312-6.617-.342C47.092-319.731,44.668-319.686,44.43-319.6Z" transform="translate(-36.455 -36.845)" fill="#7871ff"/>
    <path id="Path_18510" data-name="Path 18510" d="M321.861-298.606a2.714,2.714,0,0,0-1.472,1.487c-.045.164-1.219,5.665-2.617,12.208-1.844,8.639-2.528,12.089-2.483,12.58.119,1.413,1.011,2.067,2.81,2.067h1.085l.03-1.606a10.279,10.279,0,0,1,3.167-7.628,10.456,10.456,0,0,1,5.68-3.167,10.851,10.851,0,0,1,10.275,3.331,10.622,10.622,0,0,1,2.974,7.167c.03,1.086.06,1.249.238,1.115.372-.312.55-.981,1.814-6.914L344.6-283.8l-.164-1.532a15.152,15.152,0,0,0-11.94-13.145A61.1,61.1,0,0,0,321.861-298.606Z" transform="translate(-268.309 -54.67)" fill="#f43397"/>
    <path id="Path_18511" data-name="Path 18511" d="M22.787-255.658a2.355,2.355,0,0,0,.074,4.134c.565.282.848.282,8.372.253,7.643-.045,7.807-.045,8.223-.357a2.363,2.363,0,0,0,0-3.985c-.416-.312-.565-.312-8.253-.342L23.367-256Z" transform="translate(-18.291 -91.089)" fill="#7871ff"/>
    <path id="Path_18512" data-name="Path 18512" d="M1.507-191.595A2.446,2.446,0,0,0,.154-188.9a2.545,2.545,0,0,0,1.546,1.71c.372.119,3.569.149,9.8.119,9.115-.045,9.249-.045,9.665-.357a2.363,2.363,0,0,0,0-3.985c-.416-.312-.55-.312-9.814-.342C3.768-191.788,1.864-191.758,1.507-191.595Z" transform="translate(0 -145.77)" fill="#7871ff"/>
    <path id="Path_18513" data-name="Path 18513" d="M134.813-170.442a7.94,7.94,0,0,0-6.617,7.36,7.954,7.954,0,0,0,8.505,8.357,8.186,8.186,0,0,0,5.294-2.617,9.092,9.092,0,0,0,1.918-4.193,7.919,7.919,0,0,0-5.651-8.669A8.826,8.826,0,0,0,134.813-170.442Z" transform="translate(-109.023 -163.859)" fill="#f43397"/>
    <path id="Path_18514" data-name="Path 18514" d="M369.839-170.481a8.04,8.04,0,0,0-6.617,6.216A9.825,9.825,0,0,0,363.5-160a8.045,8.045,0,0,0,7.911,5.234,7.82,7.82,0,0,0,7.405-7.39,7.422,7.422,0,0,0-.773-3.955A7.93,7.93,0,0,0,369.839-170.481Z" transform="translate(-309.016 -163.82)" fill="#f43397"/>
    <path id="Path_18515" data-name="Path 18515" d="M43.548-138.9a5.968,5.968,0,0,0-.253,1.041c-.342,1.725.03,2.87,1.1,3.375.431.193,1.115.238,4.387.238h3.881v-1.4a10.583,10.583,0,0,1,.372-3.108c.1-.238-.178-.253-4.654-.253C45.749-139,43.578-138.955,43.548-138.9Z" transform="translate(-36.658 -190.692)" fill="#7871ff"/>
  </g>
</svg>
