<svg xmlns="http://www.w3.org/2000/svg" width="63.229" height="70.547" viewBox="0 0 63.229 70.547">
  <g id="Group_11034" data-name="Group 11034" transform="translate(-18101 -1488)">
    <path id="Path_18763" data-name="Path 18763" d="M96.854,57.675h0l.005,0-.007,0" transform="translate(18022.195 1441.077)" fill="#bf3b2c"/>
    <path id="Path_18764" data-name="Path 18764" d="M85.69,61.073a9.208,9.208,0,0,0-4.461-6.643l.008.012-.287-.168.019.014-.295-.161.019.016-.3-.178-3.609-1.009a9.909,9.909,0,0,0-3.926.6l-.347.142-.06.009-.3.132-.159.121,0-.015-.281.143,0-.006-2.262,1.4a11.633,11.633,0,0,0-2.705,4.283,16.973,16.973,0,0,0-.228,3.086,15.735,15.735,0,0,0,2.169,5.814c.979,1.808,2.044,3.57,3.071,5.351q1.144,1.652,2.289,3.3c1.021,1.469,2.438,1.522,3.522.111.845-1.1,1.656-2.226,2.481-3.34l4.708-7.833c.127-.345.248-.692.381-1.034a7.518,7.518,0,0,0,.553-4.152M76.233,59.08a3.628,3.628,0,1,1-3.754,3.493,3.632,3.632,0,0,1,3.754-3.493" transform="translate(18046.896 1444.912)" fill="#7871ff"/>
    <path id="Path_18765" data-name="Path 18765" d="M141.4,58.551l-.3-.178.3.178" transform="translate(17986.193 1440.505)" fill="#bf3b2c"/>
    <path id="Path_18766" data-name="Path 18766" d="M142.886,59.4l-.295-.161.295.161" transform="translate(17984.982 1439.799)" fill="#bf3b2c"/>
    <path id="Path_18767" data-name="Path 18767" d="M144.358,60.194l-.287-.168.287.168" transform="translate(17983.777 1439.16)" fill="#bf3b2c"/>
    <path id="Path_18768" data-name="Path 18768" d="M99.154,56.168l-.347.142.347-.142" transform="translate(18020.607 1442.299)" fill="#bf3b2c"/>
    <path id="Path_18769" data-name="Path 18769" d="M97.158,56.981l-.3.133.3-.133" transform="translate(18022.195 1441.637)" fill="#bf3b2c"/>
    <path id="Path_18770" data-name="Path 18770" d="M94.8,58.257l-.281.143.281-.143" transform="translate(18024.092 1440.599)" fill="#bf3b2c"/>
    <path id="Path_18771" data-name="Path 18771" d="M96.175,57.67l-.165.125.165-.125" transform="translate(18022.881 1441.077)" fill="#bf3b2c"/>
    <path id="Path_18772" data-name="Path 18772" d="M45,4.305c.532.409,1.09.784,1.616,1.2a1.183,1.183,0,0,1,.365,1.6c-.418.858-.319,1.242.449,1.845,1.055.829,2.13,1.635,3.171,2.482a8.123,8.123,0,0,1,.869.964l2.262-1.4,0,.006.281-.142,0,.015.16-.121.3-.132.059-.01.347-.142a9.909,9.909,0,0,1,3.926-.6,9.523,9.523,0,0,1,2.7-3.9,1.271,1.271,0,0,0,.307-1.945q-.451-.743-.926-1.47a1.245,1.245,0,0,0-1.883-.523c-.883.408-1.758.83-2.64,1.24A1.36,1.36,0,0,1,54.4,2.908C53.476,1.967,52.542,1.036,51.612.1L46.73,0c-.682.83-1.4,1.637-2.037,2.5A1.174,1.174,0,0,0,45,4.305" transform="translate(18064.877 1488)" fill="#f43397"/>
    <path id="Path_18773" data-name="Path 18773" d="M63.162,78.714c-.138-1.189-1.241-1.924-2.759-1.975a7.405,7.405,0,0,0-6.046,3.069c-.744.885-1.338,1.9-2.006,2.845a5.476,5.476,0,0,1-2.961,2.2,1.581,1.581,0,0,1-2.026-.762,8.064,8.064,0,0,1-.612-1.4c-.214-.588-.352-1.2-.58-1.787a1.173,1.173,0,0,0-1.922-.542c-.6.444-1.174.914-1.727,1.411a1.133,1.133,0,0,0-.2,1.57c.121.2.263.383.388.579a1.153,1.153,0,0,1-.2,1.677c-2.4,1.989-1.613,1.879-4.31,1.013-.066-.021-.137-.029-.2-.054a1.218,1.218,0,0,0-1.526.48,1.567,1.567,0,0,1-2.407.453c-1.131-.64-2.272-1.261-3.409-1.891L25.946,93.44h0c-.826,1.114-1.637,2.24-2.481,3.34-1.083,1.412-2.5,1.359-3.522-.11q-1.147-1.65-2.289-3.3c-1.027-1.782-2.092-3.544-3.071-5.352A15.733,15.733,0,0,1,12.415,82.2a17.01,17.01,0,0,1,.228-3.086q-2.035,2.606-4.07,5.216a1.245,1.245,0,0,1-1.31.594,2.729,2.729,0,0,1-.795-.415c-.988-.637-1.58-.489-2.142.552-.342.633-.66,1.281-1.031,1.9a1.479,1.479,0,0,0,.131,1.857c.6.77,1.149,1.577,1.7,2.379a1.1,1.1,0,0,1-.01,1.364,1.136,1.136,0,0,1-1.285.463,3.038,3.038,0,0,1-.6-.172,2.1,2.1,0,0,0-2.76.694,1.282,1.282,0,0,0,.19,2.124c.6.443,1.206.869,1.8,1.31,1.126.829,1.061,1.748-.165,2.39a1.165,1.165,0,0,0-.366,1.953,6.833,6.833,0,0,0,3.089,1.93c1.688.555,2.552.242,3.343-1.339a1.2,1.2,0,0,1,1.549-.7,2.228,2.228,0,0,1,1.234,1.722c.095,2.04.128,4.086.312,6.119a22.422,22.422,0,0,0,2.241,8.635c1.1,2.072,2.226,4.129,3.3,6.214a14.945,14.945,0,0,1,2.027,6.023,9.566,9.566,0,0,0,.06,1.242,2.283,2.283,0,0,0,1.849,1.771,1.859,1.859,0,0,0,2.074-1.011,3.218,3.218,0,0,1,2.528-1.52,1.255,1.255,0,0,0,1.221-1.468,2.694,2.694,0,0,1,.037-.894,23.682,23.682,0,0,1,1.093-3.291,10.557,10.557,0,0,0,.134-8.648c-.353-.923-.2-1.295.618-1.88a30.84,30.84,0,0,0,2.968-2.194c3.452-3.145,6.847-6.352,10.274-9.525a2.978,2.978,0,0,0,.87-1.675c.427-1.943,1.362-2.942,3.018-2.577a1.325,1.325,0,0,0,1.473-.524A1.4,1.4,0,0,0,47.4,96.1a29.97,29.97,0,0,0-2.354-3.767c-1.414-1.728-1.274-2.088.344-3.319.8-.608,1.215-.7,1.993-.092a2.466,2.466,0,0,0,2.993.42.959.959,0,0,1,1.312.283,2.024,2.024,0,0,1,.246,1.277,7.092,7.092,0,0,1-.532,1.5,1.114,1.114,0,0,0,.423,1.414q1.391.988,2.831,1.908a1.145,1.145,0,0,0,1.794-.516,30.65,30.65,0,0,0,2.322-8.853A3.252,3.252,0,0,1,60.7,83.443c.475-.234,1.036-.3,1.491-.562.368-.211.863-.57.906-.913a13.75,13.75,0,0,0,.07-3.254" transform="translate(18101 1425.564)" fill="#f43397"/>
    <path id="Path_18774" data-name="Path 18774" d="M102.363,85.813a3.628,3.628,0,1,1-3.754,3.493,3.632,3.632,0,0,1,3.754-3.493" transform="translate(18020.768 1418.179)" fill="#fefcfc"/>
  </g>
</svg>
